<svg width="27" height="23" viewBox="0 0 27 23" fill="none" xmlns="http://www.w3.org/2000/svg">
<path d="M13.338 8.211C15.066 8.28 15.5115 9.5335 15.5385 10.12H17.955C17.847 7.843 15.9435 6.4515 13.2975 6.4515C10.314 6.4515 8.1 8.05 8.1 11.661C8.1 13.892 9.3555 16.537 13.284 16.537C16.281 16.537 17.8875 14.6395 17.928 13.1445H15.5115C15.471 13.823 14.904 14.7315 13.311 14.8005C11.5425 14.7545 10.8 13.5815 10.8 11.661C10.8 8.3375 12.528 8.234 13.338 8.211ZM13.5 0C6.048 0 0 5.152 0 11.5C0 17.848 6.048 23 13.5 23C20.952 23 27 17.848 27 11.5C27 5.152 20.952 0 13.5 0ZM13.5 20.7C7.5465 20.7 2.7 16.5715 2.7 11.5C2.7 6.4285 7.5465 2.3 13.5 2.3C19.4535 2.3 24.3 6.4285 24.3 11.5C24.3 16.5715 19.4535 20.7 13.5 20.7Z" fill="black"/>
</svg>
