<svg width="20" height="20" viewBox="0 0 20 20" fill="none" xmlns="http://www.w3.org/2000/svg">
<path d="M10.204 8.18164V12.0546H15.6957C15.4546 13.3001 14.7309 14.3547 13.6456 15.0638L16.9573 17.5822C18.8868 15.8367 20 13.2729 20 10.2273C20 9.51818 19.9351 8.83627 19.8144 8.18175L10.204 8.18164Z" fill="#4285F4"/>
<path d="M4.48524 11.9033L3.73833 12.4637L1.09448 14.4819C2.77353 17.7457 6.21485 20.0004 10.2037 20.0004C12.9588 20.0004 15.2686 19.1094 16.957 17.5821L13.6453 15.0638C12.7362 15.6638 11.5766 16.0275 10.2037 16.0275C7.55065 16.0275 5.29653 14.2729 4.48941 11.9091L4.48524 11.9033Z" fill="#34A853"/>
<path d="M1.09455 5.51758C0.398848 6.86304 0 8.38132 0 9.99956C0 11.6178 0.398848 13.1361 1.09455 14.4815C1.09455 14.4906 4.48981 11.8996 4.48981 11.8996C4.28573 11.2996 4.1651 10.6632 4.1651 9.99945C4.1651 9.3357 4.28573 8.69934 4.48981 8.09932L1.09455 5.51758Z" fill="#FBBC05"/>
<path d="M10.2039 3.98201C11.7067 3.98201 13.0425 4.49112 14.1093 5.473L17.0314 2.60925C15.2596 0.99102 12.9591 0 10.2039 0C6.21506 0 2.77353 2.24556 1.09448 5.51846L4.48964 8.10041C5.29665 5.73663 7.55086 3.98201 10.2039 3.98201Z" fill="#EA4335"/>
</svg>
